<svg xmlns="http://www.w3.org/2000/svg" width="512" height="512" viewBox="0 0 24 24"><path fill="#000000" d="M11 4.68v3.88a2.45 2.45 0 0 1-1.509 2.258A2.409 2.409 0 0 1 8.56 11H4.68a2.44 2.44 0 0 1-2.43-2.44V4.69a2.44 2.44 0 0 1 2.43-2.44h3.88A2.44 2.44 0 0 1 11 4.68m10.75.01v3.87a2.41 2.41 0 0 1-.71 1.72a2.378 2.378 0 0 1-1.72.72h-3.88a2.45 2.45 0 0 1-2.256-1.502A2.4 2.4 0 0 1 13 8.56V4.69a2.391 2.391 0 0 1 .72-1.72a2.42 2.42 0 0 1 1.72-.72h3.88a2.44 2.44 0 0 1 2.43 2.44M11 15.45v3.87a2.44 2.44 0 0 1-2.44 2.43H4.68a2.45 2.45 0 0 1-1.72-.71a2.41 2.41 0 0 1-.71-1.72v-3.87a2.41 2.41 0 0 1 .71-1.72A2.47 2.47 0 0 1 4.68 13h3.88A2.46 2.46 0 0 1 11 15.45m10.75 1.93A4.37 4.37 0 1 1 17.37 13a4.4 4.4 0 0 1 4.049 2.707c.22.53.332 1.099.331 1.673"/></svg>

<svg width="54" height="54" viewBox="0 0 54 54" fill="none" xmlns="http://www.w3.org/2000/svg">
<mask id="mask0_55_54" style="mask-type:luminance" maskUnits="userSpaceOnUse" x="0" y="0" width="54" height="54">
<path d="M46.6666 2.66666H6.66663C5.60576 2.66666 4.58834 3.08809 3.8382 3.83824C3.08805 4.58838 2.66663 5.6058 2.66663 6.66666V46.6667C2.66663 47.7275 3.08805 48.7449 3.8382 49.4951C4.58834 50.2452 5.60576 50.6667 6.66663 50.6667H46.6666C47.7275 50.6667 48.7449 50.2452 49.4951 49.4951C50.2452 48.7449 50.6666 47.7275 50.6666 46.6667V6.66666C50.6666 5.6058 50.2452 4.58838 49.4951 3.83824C48.7449 3.08809 47.7275 2.66666 46.6666 2.66666Z" fill="white" stroke="white" stroke-width="5.33333" stroke-linecap="round" stroke-linejoin="round"/>
<path d="M22.6666 36L29.3333 41.3333L39.9999 28M13.3333 14.6667H39.9999M13.3333 25.3333H23.9999" stroke="black" stroke-width="5.33333" stroke-linecap="round" stroke-linejoin="round"/>
</mask>
<g mask="url(#mask0_55_54)">
<path d="M-5.33337 -5.33334H58.6666V58.6667H-5.33337V-5.33334Z" fill="#1A2517"/>
</g>
</svg>
